<!DOCTYPE svg PUBLIC "-//W3C//DTD SVG 1.1//EN" "http://www.w3.org/Graphics/SVG/1.1/DTD/svg11.dtd">
<!-- Uploaded to: SVG Repo, www.svgrepo.com, Transformed by: SVG Repo Mixer Tools -->
<svg fill="#ffffff" height="800px" width="800px" version="1.1" id="Layer_1" xmlns="http://www.w3.org/2000/svg" xmlns:xlink="http://www.w3.org/1999/xlink" viewBox="0 0 512.001 512.001" xml:space="preserve" stroke="#ffffff">
<g id="SVGRepo_bgCarrier" stroke-width="0"/>
<g id="SVGRepo_tracerCarrier" stroke-linecap="round" stroke-linejoin="round"/>
<g id="SVGRepo_iconCarrier"> <g> <g> <path d="M510.187,191.787L405.334,35.947c-6.187-9.173-16.427-14.613-27.413-14.613h-243.84c-10.987,0-21.333,5.44-27.413,14.507 L1.814,191.787c-1.173,1.813-1.813,3.84-1.813,5.973v259.52c-0.107,18.347,14.613,33.28,32.96,33.387h446.08 c18.347-0.107,33.067-15.147,32.96-33.387v-259.52C512.001,195.627,511.361,193.494,510.187,191.787z M124.374,47.787 c2.133-3.2,5.76-5.12,9.707-5.12h243.733c3.84,0,7.573,1.92,9.707,5.12l97.067,144.213H354.454 c-10.24-0.107-19.2,7.04-21.44,17.067l-5.76,27.627c-1.067,5.013-5.867,8.64-11.52,8.64h-119.68 c-5.547,0-10.453-3.627-11.413-8.64l-5.76-27.627c-2.24-10.027-11.093-17.173-21.44-17.067H27.414L124.374,47.787z M490.667,457.174c0.107,6.613-5.12,12.053-11.627,12.16H32.961c-6.507-0.107-11.733-5.547-11.627-12.053v-107.52 c3.733,1.387,7.68,2.133,11.627,2.24h128.213l4.48,19.84c2.88,14.293,14.72,22.827,31.787,22.827h116.693 c17.067,0,29.013-8.533,31.787-22.72l4.16-19.947h128.96c3.947,0,7.893-0.747,11.627-2.24V457.174z M182.934,352.001h145.387 l-3.307,15.68c-0.32,1.6-1.067,5.653-10.88,5.653H197.441c-9.707,0-10.56-4.16-10.987-5.973L182.934,352.001z M490.667,319.254 c-0.107,6.4-5.227,11.52-11.627,11.413H32.961c-6.4,0-11.52-5.013-11.627-11.413v-105.92l136.64,0.107l5.76,27.627 c3.093,14.827,16.747,25.6,32.32,25.6h119.787c15.68,0,29.227-10.773,32.32-25.6l6.293-27.733h136.213V319.254z"/> </g> </g> </g>
</svg>